<svg xmlns="http://www.w3.org/2000/svg" xmlns:xlink="http://www.w3.org/1999/xlink" width="100%" height="100%" fill-rule="evenodd" stroke-linejoin="round" stroke-miterlimit="1.414" clip-rule="evenodd" version="1.1" viewBox="0 0 16 16" xml:space="preserve"><g><path fill="#3DBFF6" fill-rule="nonzero" d="M11.7,1.6L4.3,1.6L8,8L15.4,8L11.7,1.6Z"/><path fill="#208FCC" fill-rule="nonzero" d="M0.6,8L4.3,1.6L8,8L4.3,14.4L0.6,8Z"/><path fill="#3DBFF6" fill-rule="nonzero" d="M0.6,8L8,8L11.7,14.4L4.3,14.4L0.6,8Z"/><path fill="#0071BC" fill-rule="nonzero" d="M11.7,1.6L8,8L11.7,14.4L15.4,8L11.7,1.6Z"/><path fill="#fff" fill-rule="nonzero" d="M14.1,10.2L12.2,7L11.1,9L12.9,12.2L14.1,10.2Z"/><ellipse cx="12.5" cy="9.9" fill="#0071BC" rx=".2" ry=".3"/><g><circle cx=".6" cy="8" r=".6" fill="#fff"/><circle cx="8" cy="8" r=".6" fill="#fff"/><circle cx="4.3" cy="14.4" r=".6" fill="#fff"/><circle cx="11.7" cy="14.4" r=".6" fill="#fff"/><circle cx="4.3" cy="1.6" r=".6" fill="#fff"/><circle cx="11.7" cy="1.6" r=".6" fill="#fff"/><circle cx="15.4" cy="8" r=".6" fill="#fff"/><path fill="#fff" fill-rule="nonzero" d="M8.1,8.2L0.3,8.2L4.2,1.4L12,1.4L8.1,8.2ZM1,7.8L7.9,7.8L11.4,1.8L4.4,1.8L1,7.8Z"/><path fill="#fff" fill-rule="nonzero" d="M11.8,14.6L4.2,14.6L0.5,8.1L0.8,7.9L4.4,14.2L11.6,14.2L15.1,8L11.5,1.7L11.8,1.5L15.6,8L11.8,14.6Z"/><g transform="matrix(0.8654,-0.501,0.501,0.8654,-4.2828,6.4256)"><rect width=".4" height="7.4" x="9.6" y="7.5" fill="#fff"/></g></g></g></svg>